<mxfile host="app.diagrams.net" modified="2021-12-15T11:18:54.124Z" agent="5.0 (Macintosh; Intel Mac OS X 10_15_7) AppleWebKit/537.36 (KHTML, like Gecko) Chrome/96.0.4664.93 Safari/537.36" etag="lzcr7Itk65qbcFlslPXr" version="15.9.6" type="github">
  <diagram id="prtHgNgQTEPvFCAcTncT" name="Page-1">
    <mxGraphModel dx="1351" dy="877" grid="0" gridSize="10" guides="1" tooltips="1" connect="1" arrows="1" fold="1" page="1" pageScale="1" pageWidth="827" pageHeight="1169" math="0" shadow="0">
      <root>
        <mxCell id="0" />
        <mxCell id="1" parent="0" />
        <mxCell id="TedzR1Ovv3LkJXssQuWa-9" style="edgeStyle=orthogonalEdgeStyle;rounded=0;orthogonalLoop=1;jettySize=auto;html=1;exitX=0.5;exitY=1;exitDx=0;exitDy=0;entryX=0.5;entryY=0;entryDx=0;entryDy=0;fontSize=15;" edge="1" parent="1" source="TedzR1Ovv3LkJXssQuWa-1" target="TedzR1Ovv3LkJXssQuWa-2">
          <mxGeometry relative="1" as="geometry" />
        </mxCell>
        <mxCell id="TedzR1Ovv3LkJXssQuWa-1" value="用户" style="rounded=0;whiteSpace=wrap;html=1;fontSize=15;" vertex="1" parent="1">
          <mxGeometry x="96" y="23" width="64" height="30" as="geometry" />
        </mxCell>
        <mxCell id="TedzR1Ovv3LkJXssQuWa-7" style="edgeStyle=orthogonalEdgeStyle;rounded=0;orthogonalLoop=1;jettySize=auto;html=1;entryX=0.5;entryY=0;entryDx=0;entryDy=0;fontSize=15;" edge="1" parent="1" source="TedzR1Ovv3LkJXssQuWa-2" target="TedzR1Ovv3LkJXssQuWa-3">
          <mxGeometry relative="1" as="geometry" />
        </mxCell>
        <mxCell id="TedzR1Ovv3LkJXssQuWa-2" value="刺激范式" style="rounded=0;whiteSpace=wrap;html=1;fontSize=15;" vertex="1" parent="1">
          <mxGeometry x="73" y="83" width="110" height="30" as="geometry" />
        </mxCell>
        <mxCell id="TedzR1Ovv3LkJXssQuWa-8" style="edgeStyle=orthogonalEdgeStyle;rounded=0;orthogonalLoop=1;jettySize=auto;html=1;entryX=0.5;entryY=0;entryDx=0;entryDy=0;fontSize=15;" edge="1" parent="1" source="TedzR1Ovv3LkJXssQuWa-3" target="TedzR1Ovv3LkJXssQuWa-4">
          <mxGeometry relative="1" as="geometry" />
        </mxCell>
        <mxCell id="TedzR1Ovv3LkJXssQuWa-3" value="信号采集" style="rounded=0;whiteSpace=wrap;html=1;fontSize=15;" vertex="1" parent="1">
          <mxGeometry x="73" y="143" width="110" height="30" as="geometry" />
        </mxCell>
        <mxCell id="TedzR1Ovv3LkJXssQuWa-10" style="edgeStyle=orthogonalEdgeStyle;rounded=0;orthogonalLoop=1;jettySize=auto;html=1;exitX=0.5;exitY=1;exitDx=0;exitDy=0;entryX=0.5;entryY=0;entryDx=0;entryDy=0;fontSize=15;" edge="1" parent="1" source="TedzR1Ovv3LkJXssQuWa-4" target="TedzR1Ovv3LkJXssQuWa-5">
          <mxGeometry relative="1" as="geometry" />
        </mxCell>
        <mxCell id="TedzR1Ovv3LkJXssQuWa-4" value="信号处理" style="rounded=0;whiteSpace=wrap;html=1;fontSize=15;" vertex="1" parent="1">
          <mxGeometry x="73" y="203" width="110" height="30" as="geometry" />
        </mxCell>
        <mxCell id="TedzR1Ovv3LkJXssQuWa-11" style="edgeStyle=orthogonalEdgeStyle;rounded=0;orthogonalLoop=1;jettySize=auto;html=1;exitX=0.5;exitY=1;exitDx=0;exitDy=0;entryX=0.5;entryY=0;entryDx=0;entryDy=0;fontSize=15;" edge="1" parent="1" source="TedzR1Ovv3LkJXssQuWa-5" target="TedzR1Ovv3LkJXssQuWa-6">
          <mxGeometry relative="1" as="geometry" />
        </mxCell>
        <mxCell id="TedzR1Ovv3LkJXssQuWa-5" value="信号识别" style="rounded=0;whiteSpace=wrap;html=1;fontSize=15;" vertex="1" parent="1">
          <mxGeometry x="73" y="263" width="110" height="30" as="geometry" />
        </mxCell>
        <mxCell id="TedzR1Ovv3LkJXssQuWa-6" value="意图展示" style="rounded=0;whiteSpace=wrap;html=1;fontSize=15;" vertex="1" parent="1">
          <mxGeometry x="73" y="323" width="110" height="30" as="geometry" />
        </mxCell>
        <mxCell id="TedzR1Ovv3LkJXssQuWa-12" style="edgeStyle=orthogonalEdgeStyle;rounded=0;orthogonalLoop=1;jettySize=auto;html=1;exitX=0.5;exitY=1;exitDx=0;exitDy=0;entryX=0.5;entryY=0;entryDx=0;entryDy=0;fontSize=15;" edge="1" parent="1" source="TedzR1Ovv3LkJXssQuWa-13" target="TedzR1Ovv3LkJXssQuWa-15">
          <mxGeometry relative="1" as="geometry" />
        </mxCell>
        <mxCell id="TedzR1Ovv3LkJXssQuWa-13" value="用户" style="rounded=0;whiteSpace=wrap;html=1;fontSize=15;" vertex="1" parent="1">
          <mxGeometry x="379" y="258" width="64" height="30" as="geometry" />
        </mxCell>
        <mxCell id="TedzR1Ovv3LkJXssQuWa-14" style="edgeStyle=orthogonalEdgeStyle;rounded=0;orthogonalLoop=1;jettySize=auto;html=1;entryX=0.5;entryY=0;entryDx=0;entryDy=0;fontSize=15;" edge="1" parent="1" source="TedzR1Ovv3LkJXssQuWa-15" target="TedzR1Ovv3LkJXssQuWa-17">
          <mxGeometry relative="1" as="geometry" />
        </mxCell>
        <mxCell id="TedzR1Ovv3LkJXssQuWa-15" value="刺激范式" style="rounded=0;whiteSpace=wrap;html=1;fontSize=15;" vertex="1" parent="1">
          <mxGeometry x="356" y="318" width="110" height="30" as="geometry" />
        </mxCell>
        <mxCell id="TedzR1Ovv3LkJXssQuWa-16" style="edgeStyle=orthogonalEdgeStyle;rounded=0;orthogonalLoop=1;jettySize=auto;html=1;entryX=0.5;entryY=0;entryDx=0;entryDy=0;fontSize=15;" edge="1" parent="1" source="TedzR1Ovv3LkJXssQuWa-17" target="TedzR1Ovv3LkJXssQuWa-19">
          <mxGeometry relative="1" as="geometry" />
        </mxCell>
        <mxCell id="TedzR1Ovv3LkJXssQuWa-17" value="信号采集" style="rounded=0;whiteSpace=wrap;html=1;fontSize=15;" vertex="1" parent="1">
          <mxGeometry x="356" y="378" width="110" height="30" as="geometry" />
        </mxCell>
        <mxCell id="TedzR1Ovv3LkJXssQuWa-18" style="edgeStyle=orthogonalEdgeStyle;rounded=0;orthogonalLoop=1;jettySize=auto;html=1;exitX=0.5;exitY=1;exitDx=0;exitDy=0;entryX=0.5;entryY=0;entryDx=0;entryDy=0;fontSize=15;" edge="1" parent="1" source="TedzR1Ovv3LkJXssQuWa-19" target="TedzR1Ovv3LkJXssQuWa-21">
          <mxGeometry relative="1" as="geometry" />
        </mxCell>
        <mxCell id="TedzR1Ovv3LkJXssQuWa-19" value="信号处理" style="rounded=0;whiteSpace=wrap;html=1;fontSize=15;" vertex="1" parent="1">
          <mxGeometry x="356" y="438" width="110" height="30" as="geometry" />
        </mxCell>
        <mxCell id="TedzR1Ovv3LkJXssQuWa-20" style="edgeStyle=orthogonalEdgeStyle;rounded=0;orthogonalLoop=1;jettySize=auto;html=1;exitX=0.5;exitY=1;exitDx=0;exitDy=0;entryX=0.5;entryY=0;entryDx=0;entryDy=0;fontSize=15;" edge="1" parent="1" source="TedzR1Ovv3LkJXssQuWa-21" target="TedzR1Ovv3LkJXssQuWa-22">
          <mxGeometry relative="1" as="geometry" />
        </mxCell>
        <mxCell id="TedzR1Ovv3LkJXssQuWa-21" value="信号识别" style="rounded=0;whiteSpace=wrap;html=1;fontSize=15;" vertex="1" parent="1">
          <mxGeometry x="356" y="498" width="110" height="30" as="geometry" />
        </mxCell>
        <mxCell id="TedzR1Ovv3LkJXssQuWa-22" value="意图展示" style="rounded=0;whiteSpace=wrap;html=1;fontSize=15;" vertex="1" parent="1">
          <mxGeometry x="356" y="558" width="110" height="30" as="geometry" />
        </mxCell>
      </root>
    </mxGraphModel>
  </diagram>
</mxfile>
